<?xml version="1.0" encoding="UTF-8" standalone="no"?>
<!DOCTYPE svg PUBLIC "-//W3C//DTD SVG 1.1//EN" "http://www.w3.org/Graphics/SVG/1.1/DTD/svg11.dtd">
<svg viewBox="0 0 32 32" xmlns="http://www.w3.org/2000/svg">
  <path d="M30.7 29.3L20.45 19.05c1.6-1.9 2.55-4.4 2.55-7.05 0-6.05-4.95-11-11-11S1 5.95 1 12s4.95 11 11 11c2.65 0 5.15-.95 7.05-2.55L29.3 30.7c.4.4 1 .4 1.4 0 .4-.4.4-1 0-1.4zM12 21c-4.95 0-9-4.05-9-9s4.05-9 9-9 9 4.05 9 9-4.05 9-9 9zm3.35-14.6c-.1.2-.25.3-.45.3-.1 0-.15 0-.2-.05-.25-.15-.5-.25-.8-.35-.25-.1-.4-.35-.3-.65.1-.25.35-.4.65-.3.3.1.6.25.9.4.25.1.35.4.2.65zm-2.85-.9c0 .3-.2.5-.5.5-3.3 0-6 2.7-6 6 0 .3-.2.5-.5.5S5 12.3 5 12c0-3.85 3.15-7 7-7 .3 0 .5.2.5.5z" fill="#fff" opacity="0.5"/>
</svg>
